# xmcd
#
# Track frame offsets:
#	150
#	33385
#	62755
#	91940
#	108063
#	138360
#	172930
#	208225
#	229018
#	252635
#
# Disc length: 3640 seconds
#
# Revision: 1
# Processed by: cddbd v1.5.2PL0 Copyright (c) Steve Scherf et al.
# Submitted via: EZCDAudioConverter 8.0.2.1
#
DISCID=830e360a
DTITLE=Various Artist - Doctor New Ware 2. Khúc Hát Thiên Thần
DYEAR=1989
DGENRE=Retrospective Pop
TTITLE0=Kiều Nga - Yêu anh mãi mãi
TTITLE1=Lynda Trang Đài - Khúc Hát Thiên Thần
TTITLE2=Ngọc Lan - Sheila yêu dấu
TTITLE3=Tuyết Nhung - Tim hồng
TTITLE4=Minh Xuân - Giọt buồn trong đêm
TTITLE5=Lilian - Chỉ đôi ta
TTITLE6=Duy Quang - Sẽ có lúc
TTITLE7=Thúy Vi - Khi em cần anh
TTITLE8=Như Mai - Tình xưa
TTITLE9=Thái Hiền - Hãy tìm đến bên em
EXTD=
EXTT0=
EXTT1=
EXTT2=
EXTT3=
EXTT4=
EXTT5=
EXTT6=
EXTT7=
EXTT8=
EXTT9=
PLAYORDER=
